<svg xmlns="http://www.w3.org/2000/svg" width="32" height="32" viewBox="0 0 32 32"><g transform="rotate(45 1998.496 211.687)"><path fill="#d89482" d="m 460.5105,1490.1952 c 0,0.553 -0.4476,1.0006 -0.99985,0.9998 l -1.9997,0 c -0.55295,0 -1.00055,-0.4476 -0.99985,-0.9998 l 0,-8.0002 c 0,-0.553 0.4476,-1.0006 0.99985,-0.9999 l 1.9997,0 c 0.55296,0 1.00056,0.4476 0.99985,0.9999 l 0,8.0002 z" class="st3"/><path fill="#fff" d="m 457.51172,460.83203 c -0.55225,-7e-4 -1,0.447 -1,1 l 0,8 c -7e-4,0.5522 0.44705,1 1,1 l 1.48828,0 c -0.55295,0 -1.0007,-0.4478 -1,-1 l 0,-8 c 0,-0.553 0.44775,-1.0007 1,-1 l -1.48828,0 z" transform="translate(0 1020.362)"/><path fill="#36c0c2" d="m 468.01149,1472.1951 -19.00137,0 c -0.55296,0 -1.00056,-0.4476 -0.99985,-0.9999 l 0,-3.9994 c 0,-0.5529 0.44759,-1.0005 0.99985,-0.9998 l 18.99995,0 c 0.55296,0 1.00056,0.4476 0.99985,0.9998 l 0,3.9994 c 7.1e-4,0.5523 -0.44689,0.9999 -0.99843,0.9999 z" class="st2"/><path fill="#fff" d="m 449.00977,445.83398 c -0.55226,-7e-4 -1,0.4471 -1,1 l 0,3.99805 c -7.1e-4,0.5523 0.44704,1 1,1 l 1.49023,0 c -0.55296,0 -1.00071,-0.4477 -1,-1 l 0,-3.99805 c 0,-0.5529 0.44774,-1.0007 1,-1 l -1.49023,0 z" transform="translate(0 1020.362)"/><path fill="#fff" d="m 449.00977,445.83398 c -0.55226,-7e-4 -1,0.4471 -1,1 l 0,1.5 c 0,-0.5529 0.44774,-1.0007 1,-1 l 19,0 c 0.55296,0 1.00071,0.4478 1,1 l 0,-1.5 c 7.1e-4,-0.5522 -0.44704,-1 -1,-1 l -19,0 z" transform="translate(0 1020.362)"/><path fill="#444a54" d="m 468.01007,1465.6954 -18.99854,0 c -0.8259,0 -1.49977,0.6738 -1.49977,1.4997 l -7.1e-4,1.4998 -1.49977,7e-4 c -0.39952,-7e-4 -0.7757,0.1549 -1.05996,0.4391 0,0 0,0 -7e-4,7e-4 -0.28285,0.2829 -0.43912,0.6598 -0.43983,1.0607 l 0,3.9994 c 0,0.8273 0.67246,1.4998 1.49978,1.4998 l 11.50038,0 c 0.27577,0 0.49993,0.2241 0.49993,0.4999 l 0,4.5 -0.50063,0 c -0.82873,0 -1.49978,0.6739 -1.49978,1.4998 l 7.1e-4,7.9995 c 0,0.8273 0.67246,1.4998 1.49977,1.4998 l 1.9997,0 c 0.41295,0 0.78842,-0.169 1.05995,-0.4406 0.27153,-0.2715 0.44053,-0.647 0.44053,-1.0599 l 7.1e-4,-7.9995 c -0.001,-0.8273 -0.67387,-1.4998 -1.49977,-1.4998 l -0.50064,0 0,-4.5 c 0,-0.8273 -0.67246,-1.4998 -1.49977,-1.4998 l -11.50109,7e-4 c -0.27577,0 -0.49993,-0.2241 -0.49993,-0.4999 l 0,-3.9994 c 0,-0.1344 0.0523,-0.2588 0.14708,-0.3536 l 7.1e-4,-7e-4 c 0.094,-0.094 0.2192,-0.1456 0.35285,-0.1463 l 1.49977,-7e-4 0,1.5004 c 7.1e-4,0.8266 0.67316,1.4991 1.49977,1.4998 l 18.99996,0 c 0.41366,-7e-4 0.78843,-0.169 1.05995,-0.4405 0.27153,-0.2715 0.44053,-0.647 0.44053,-1.06 l -7.1e-4,-4.0001 c -7e-4,-0.8266 -0.67316,-1.499 -1.50048,-1.499 z m -7.99879,16.4996 -7e-4,7.9995 c 0,0.2758 -0.22416,0.4999 -0.49993,0.4999 l -1.9997,0 c -0.27577,0 -0.49992,-0.2241 -0.49992,-0.4999 l -7.1e-4,-7.9995 c 7.1e-4,-0.1379 0.0566,-0.2631 0.14708,-0.3536 0.0905,-0.091 0.21496,-0.147 0.35355,-0.147 l 0.99702,0 c 7.1e-4,-8e-4 7.1e-4,-8e-4 10e-4,0 7e-4,-7e-4 0.001,0 0.002,0 l 0.99702,0 c 0.27365,7e-4 0.49851,0.2256 0.49922,0.5007 z m 8.49872,-14.9999 7.1e-4,4.0001 c -0.001,0.2744 -0.22557,0.4985 -0.49993,0.5 l -18.99996,0 c -0.27436,0 -0.49992,-0.2256 -0.49992,-0.5 l 7e-4,-1.999 c 0,0 0,0 0,0 0,0 0,0 0,0 l 0,-1.9983 c 0,-0.2757 0.22416,-0.4999 0.49993,-0.4999 l 18.99996,0 c 0.27577,0 0.49922,0.2235 0.49851,0.4999 z" class="st21"/></g></svg>