<svg xmlns="http://www.w3.org/2000/svg" data-name="Layer 1" viewBox="0 0 512 512"><path fill="#fff" d="M504.5,387.05005A116.98682,116.98682,0,0,1,391.68994,503.99c-1.39014.06006-2.7998.08008-4.21.08008a117.025,117.025,0,1,1,117.02-117.02Z"/><path fill="#dedede" d="M470.93018,469.08008A116.60214,116.60214,0,0,1,391.68994,503.99a112.37913,112.37913,0,0,1-60.47021-24.8,72.67611,72.67611,0,0,1,71.25-58.33008H402.48a72.69682,72.69682,0,0,1,68.4502,48.22022Z"/><circle cx="402.476" cy="380.636" r="40.222" fill="#dedede"/><path fill="#f66" d="M458.85986,479.79a116.48458,116.48458,0,0,1-67.16992,24.2c-1.39014.06006-2.7998.08008-4.21.08008A116.48644,116.48644,0,0,1,316.06006,479.75c.0498-.18994.10986-.37012.15967-.56006a72.69358,72.69358,0,0,1,142.5205,0Q458.80029,479.49024,458.85986,479.79Z"/><path fill="#ff4e4e" d="M438.87109,442.14355a72.45018,72.45018,0,0,0-51.3999-21.28588,73.46889,73.46889,0,0,0-7.44189.39087,72.77093,72.77093,0,0,1,58.86137,42.71893,18.99762,18.99762,0,0,1-7.4628,23.94434,112.37739,112.37739,0,0,1-51.45424,16.31573c2.48047.16284,4.97559.27246,7.49756.27246a112.48306,112.48306,0,0,0,71.2666-25.31006A72.47911,72.47911,0,0,0,438.87109,442.14355Z"/><circle cx="387.476" cy="380.636" r="40.222" fill="#ffcd85"/><path fill="#ffc166" d="M387.47559,340.41357a40.42372,40.42372,0,0,0-7.5.709,40.21788,40.21788,0,0,1,0,79.02637,40.22056,40.22056,0,1,0,7.5-79.73536Z"/><path fill="#fff" d="M241.5498,124.52A117.05625,117.05625,0,0,1,132.02,241.31006h-.02979q-3.70532.23986-7.47021.24A117.025,117.025,0,1,1,241.5498,124.52Z"/><path fill="#dedede" d="M207.98,206.54a116.97641,116.97641,0,0,1-75.96,34.77h-.02979a116.45915,116.45915,0,0,1-64.07031-24.22022c.11035-.13989.23-.27978.3501-.41992A72.7013,72.7013,0,0,1,207.98,206.54Z"/><circle cx="139.524" cy="118.112" r="40.222" fill="#dedede"/><path fill="#63ea86" d="M195.8999,217.25a117.00566,117.00566,0,0,1-142.98-.16016c.11035-.13989.23-.27978.3501-.41992a72.69332,72.69332,0,0,1,142.52,0C195.83008,216.85986,195.87012,217.06006,195.8999,217.25Z"/><path fill="#3ce568" d="M175.91992,179.62012a72.45116,72.45116,0,0,0-51.40039-21.28589,73.46889,73.46889,0,0,0-7.44189.39087,72.74888,72.74888,0,0,1,61.20648,48.67841A12.901,12.901,0,0,1,173.34665,222.23,112.37677,112.37677,0,0,1,117.022,241.7041c2.481.16284,4.97608.27246,7.49756.27246a112.48082,112.48082,0,0,0,71.2666-25.3103A72.48213,72.48213,0,0,0,175.91992,179.62012Z"/><circle cx="124.524" cy="118.112" r="40.222" fill="#ffcd85"/><path fill="#ffc166" d="M124.52441,77.89014a40.39542,40.39542,0,0,0-7.5.709,40.218,40.218,0,0,1,0,79.02637,40.22051,40.22051,0,1,0,7.5-79.73535Z"/><path fill="#d9f0ff" d="M320.5 22.5v89.95175l-30.89507 26.48148a2 2 0 0 0 1.30158 3.51852H489.5a15 15 0 0 0 15-15V22.5a15 15 0 0 0-15-15h-154A15 15 0 0 0 320.5 22.5zM191.5 384.54825V474.5l30.89507 26.48149A2 2 0 0 1 221.09349 504.5H22.5a15 15 0 0 1-15-15V384.54825a15 15 0 0 1 15-15h154A15 15 0 0 1 191.5 384.54825z"/><path fill="#272a33" d="M146.5,452h-94a7.5,7.5,0,0,0,0,15h94a7.5,7.5,0,0,0,0-15Zm80.77637,43.28711L199,471.05078V384.54785a22.52586,22.52586,0,0,0-22.5-22.5H22.5a22.52586,22.52586,0,0,0-22.5,22.5V489.5A22.52586,22.52586,0,0,0,22.5,512H221.09375a9.5004,9.5004,0,0,0,6.18262-16.71289ZM22.5,497a7.5082,7.5082,0,0,1-7.5-7.5V384.54785a7.5082,7.5082,0,0,1,7.5-7.5h154a7.5082,7.5082,0,0,1,7.5,7.5V474.5a7.50058,7.50058,0,0,0,2.61914,5.69434L206.22559,497ZM387.47559,262.52344A124.52442,124.52442,0,1,0,512,387.04785,124.66533,124.66533,0,0,0,387.47559,262.52344Zm0,234.04883a108.91408,108.91408,0,0,1-62.94629-19.94678,65.1875,65.1875,0,0,1,125.90234-.00659A108.91421,108.91421,0,0,1,387.47559,496.57227ZM354.75391,380.63574a32.72217,32.72217,0,1,1,32.72168,32.72168A32.75852,32.75852,0,0,1,354.75391,380.63574Zm108.18115,85.72168a80.39373,80.39373,0,0,0-46.68555-47.68066,47.721,47.721,0,1,0-57.49414.0415,80.46894,80.46894,0,0,0-46.71924,47.658,109.52432,109.52432,0,1,1,150.89893-.0188ZM146.5,407h-94a7.5,7.5,0,0,0,0,15h94a7.5,7.5,0,0,0,0-15Zm313-317.04834h-94a7.5,7.5,0,0,0,0,15h94a7.5,7.5,0,0,0,0-15ZM124.52441,0A124.52417,124.52417,0,1,0,249.04883,124.52441,124.66533,124.66533,0,0,0,124.52441,0Zm0,234.04834a108.9166,108.9166,0,0,1-62.94629-19.94629A65.1869,65.1869,0,0,1,187.48,214.09521,108.91421,108.91421,0,0,1,124.52441,234.04834ZM91.80176,118.1123a32.72217,32.72217,0,1,1,32.72265,32.72217A32.75977,32.75977,0,0,1,91.80176,118.1123ZM199.98389,203.834a80.395,80.395,0,0,0-46.686-47.68042,47.72137,47.72137,0,1,0-57.49414.04175,80.46919,80.46919,0,0,0-46.71826,47.65747,109.52407,109.52407,0,1,1,150.89844-.0188ZM459.5,44.95166h-94a7.5,7.5,0,0,0,0,15h94a7.5,7.5,0,0,0,0-15ZM489.5,0h-154A22.52554,22.52554,0,0,0,313,22.5V109.002l-28.27832,24.2378a9.50062,9.50062,0,0,0,6.18457,16.71191H489.5a22.52554,22.52554,0,0,0,22.5-22.5V22.5A22.52554,22.52554,0,0,0,489.5,0ZM497,127.45166a7.5082,7.5082,0,0,1-7.5,7.5H305.77441L325.38086,118.146A7.50058,7.50058,0,0,0,328,112.45166V22.5a7.5082,7.5082,0,0,1,7.5-7.5h154a7.5082,7.5082,0,0,1,7.5,7.5Z"/></svg>